<?xml version="1.0" ?><svg data-name="Layer 1" id="Layer_1" viewBox="0 0 512 512" xmlns="http://www.w3.org/2000/svg"><title/><path d="M343.42,169.38A87.42,87.42,0,1,0,256,256.79,87.51,87.51,0,0,0,343.42,169.38Zm-162.64,0A75.23,75.23,0,1,1,256,244.61,75.32,75.32,0,0,1,180.78,169.38Z"/><path d="M472.17,472.47H270.07C304.78,434.72,419.87,301.88,422.39,198c1.22-51.11-13.14-92.38-42.68-122.65-29.78-30.51-74.88-48-123.7-48s-93.94,17.51-123.72,48C102.75,105.63,88.39,146.89,89.62,198c2.51,103.88,117.61,236.72,152.32,274.47H39.83a6.1,6.1,0,0,0,0,12.19H472.17a6.1,6.1,0,0,0,0-12.19ZM141,83.86c27.5-28.17,69.42-44.33,115-44.33s87.47,16.16,115,44.33c27.18,27.83,40.37,66.14,39.23,113.84-2.51,104-128.89,244.81-154.2,272-25.31-27.17-151.69-168-154.2-272C100.65,150,113.85,111.7,141,83.86Z"/></svg>